<?xml version="1.0" encoding="UTF-8"?>
<svg id="Layer_1" data-name="Layer 1" xmlns="http://www.w3.org/2000/svg" viewBox="0 0 100 100">
  <defs>
    <style>
      .cls-1 {
        fill: #043946;
      }
    </style>
  </defs>
  <path class="cls-1" d="M49.98,4.98C25.1,4.98,4.93,25.14,4.93,50.02s20.17,45.05,45.05,45.05,45.05-20.17,45.05-45.05S74.86,4.98,49.98,4.98ZM49.98,86.06c-19.9,0-36.04-16.13-36.04-36.04S30.07,13.99,49.98,13.99s36.04,16.13,36.04,36.04-16.13,36.04-36.04,36.04Z"/>
  <path class="cls-1" d="M70.76,49.98c0,11.48-9.3,20.78-20.78,20.78-12.77,0-20.43-11.79-20.78-20.78-.13-3.32.75-6.09,1.54-7.95,6.39,2.63,12.78,5.25,19.17,7.88-2.12-6.57-4.23-13.13-6.35-19.7,1.54-.54,3.76-1.11,6.41-1.01,8.77.33,20.78,7.89,20.78,20.78Z"/>
</svg>