<svg width="720" height="720" viewBox="0 0 720 720" fill="none" xmlns="http://www.w3.org/2000/svg">
<rect width="720" height="720" rx="25" fill="#043946"/>
<path d="M359.856 35.8561C180.72 35.8561 35.4959 181.008 35.4959 360.144C35.4959 539.28 180.72 684.504 359.856 684.504C538.992 684.504 684.216 539.28 684.216 360.144C684.216 181.008 538.992 35.8561 359.856 35.8561ZM359.856 619.632C216.576 619.632 100.368 503.496 100.368 360.144C100.368 216.792 216.504 100.728 359.856 100.728C503.208 100.728 619.344 216.864 619.344 360.216C619.344 503.568 503.208 619.704 359.856 619.704V619.632Z" fill="white"/>
<path d="M509.472 359.856C509.472 442.512 442.512 509.472 359.856 509.472C267.912 509.472 212.76 424.584 210.24 359.856C209.304 335.952 215.64 316.008 221.328 302.616C267.336 321.552 313.344 340.416 359.352 359.352C344.088 312.048 328.896 264.816 313.632 217.512C324.72 213.624 340.704 209.52 359.784 210.24C422.928 212.616 509.4 267.048 509.4 359.856H509.472Z" fill="white"/>
</svg>
