<?xml version="1.0" encoding="UTF-8"?>
<svg id="edefhccg" xmlns="http://www.w3.org/2000/svg" viewBox="0 0 100 100">
  <defs>
    <style>
      .cls-1 {
        fill: #ff6700;
      }
    </style>
  </defs>
  <g id="SvgjsG1007">
    <g>
      <path class="cls-1" d="M42.41,43.3c-2.7,2.58-6.87,2.33-9.32-.37-2.45-2.58-2.45-6.75.25-9.32,2.58-2.45,6.87-2.33,9.32.25,2.45,2.82,2.33,6.99-.25,9.44M65.84,67.95c-2.7,2.58-6.87,2.33-9.32-.25-2.58-2.7-2.45-6.62.25-9.32,2.58-2.45,6.75-2.45,9.32.25,2.45,2.7,2.33,6.87-.25,9.32"/>
      <path class="cls-1" d="M55.66,56.18c-3.19,3.07-8.09,2.82-10.92-.37-3.07-3.19-3.07-8.09.12-11.16,3.07-2.82,8.09-2.82,11.04.37s2.82,8.22-.25,11.16"/>
      <path class="cls-1" d="M31.5,54.58c-1.96,1.96-5.27,1.72-7.24-.37s-1.84-5.27.25-7.11c1.96-1.96,5.27-1.96,7.24.12,1.84,1.96,1.72,5.4-.25,7.36"/>
      <path class="cls-1" d="M51.85,76.05c-1.96,1.96-5.27,1.84-7.11-.25-1.96-1.96-1.96-5.27.12-7.24,1.96-1.96,5.4-1.84,7.36.25s1.72,5.27-.37,7.24"/>
      <g>
        <path class="cls-1" d="M26.59,12.88c-.86-.98-.86-2.58.25-3.56.98-.86,2.58-.86,3.43.12,1.1,1.1.98,2.7,0,3.56-1.1.98-2.7.98-3.68-.12"/>
        <path class="cls-1" d="M9.05,29.32c-.86-.98-.86-2.58.12-3.43,1.1-1.1,2.7-.98,3.56,0,1.1,1.1.98,2.7-.12,3.68-.98.74-2.58.74-3.56-.25"/>
        <path class="cls-1" d="M3.17,20.98c-.74-.74-.74-1.96.12-2.82s2.08-.86,2.82,0c.86.86.86,2.08-.12,2.94-.74.86-2.08.74-2.82-.12"/>
        <path class="cls-1" d="M18.86,5.53c-.74-.74-.74-1.96.12-2.82s2.08-.86,2.82,0c.86.86.86,2.08-.12,2.94-.61.74-1.96.74-2.82-.12"/>
        <path class="cls-1" d="M6.97,8.71c-.86-.98-.86-2.58.12-3.43.98-.86,2.58-.86,3.43.12,1.1,1.1.98,2.7,0,3.56-.86.86-2.45.86-3.56-.25"/>
        <path class="cls-1" d="M34.68,22.21c-1.47-1.59-1.35-4.17.12-5.52,1.59-1.47,3.92-1.47,5.52.12,1.35,1.47,1.35,3.8-.25,5.4-1.47,1.59-3.92,1.59-5.4,0"/>
        <path class="cls-1" d="M16.17,39.87c-1.47-1.59-1.47-4.05.12-5.52,1.47-1.35,4.05-1.47,5.52.12,1.35,1.47,1.23,4.05-.37,5.4-1.47,1.59-3.92,1.59-5.27,0"/>
        <path class="cls-1" d="M14.08,19.02c-1.35-1.47-1.23-4.05.37-5.4,1.59-1.47,4.05-1.47,5.4,0,1.59,1.59,1.47,4.05-.12,5.52-1.59,1.47-4.05,1.47-5.64-.12"/>
        <path class="cls-1" d="M23.4,30.3c-1.96-1.96-1.72-5.27.37-7.24,2.08-1.96,5.27-1.84,7.11.25,1.96,1.96,1.96,5.27-.12,7.24-1.96,1.96-5.4,1.96-7.36-.25"/>
      </g>
      <g>
        <path class="cls-1" d="M86.81,74.08c.98.98,2.58.98,3.56-.12.98-.98.98-2.58,0-3.43-1.1-1.1-2.7-1.1-3.56-.12-1.1,1.1-1.1,2.7,0,3.68"/>
        <path class="cls-1" d="M70.01,91.25c.98.98,2.58.98,3.43,0,1.1-1.1,1.1-2.7.12-3.68-1.1-1.1-2.7-1.1-3.68,0-.98.98-.98,2.58.12,3.68"/>
        <path class="cls-1" d="M78.22,97.39c.74.74,1.96.74,2.82,0,.86-.86.86-2.08.12-2.82-.86-.86-2.08-.86-2.94,0-.86.61-.86,2.08,0,2.82"/>
        <path class="cls-1" d="M93.92,81.93c.74.74,1.96.74,2.82,0,.86-.86.86-2.08.12-2.82-.86-.86-2.08-.86-2.94,0-.86.61-.86,1.96,0,2.82"/>
        <path class="cls-1" d="M90.61,93.71c.98.98,2.58.86,3.43,0,.98-.98.98-2.58,0-3.43-1.1-1.1-2.7-1.1-3.56-.12-.98.86-.98,2.45.12,3.56"/>
        <path class="cls-1" d="M77.61,65.87c1.59,1.59,4.05,1.35,5.52,0,1.59-1.59,1.59-3.92,0-5.52-1.47-1.47-3.8-1.47-5.4.12-1.59,1.35-1.72,3.8-.12,5.4"/>
        <path class="cls-1" d="M59.58,83.9c1.59,1.59,3.92,1.59,5.52,0,1.47-1.47,1.59-3.92,0-5.52-1.47-1.47-3.92-1.23-5.4.12-1.59,1.72-1.59,4.05-.12,5.4"/>
        <path class="cls-1" d="M80.43,86.35c1.47,1.47,3.92,1.23,5.4-.12,1.59-1.59,1.59-3.92.12-5.4-1.59-1.59-3.92-1.59-5.52,0-1.47,1.47-1.59,4.05,0,5.52"/>
        <path class="cls-1" d="M69.15,76.78c1.96,1.96,5.27,1.84,7.24-.25,1.96-1.96,1.96-5.15,0-7.11s-5.27-2.08-7.24-.12c-2.08,2.21-1.96,5.52,0,7.48"/>
      </g>
      <path class="cls-1" d="M53.69,33.12c1.96-1.96,1.96-5.27,0-7.24-1.96-1.96-5.15-1.96-7.11-.12-1.96,1.96-2.08,5.27-.25,7.24,1.96,2.08,5.4,2.08,7.36.12"/>
      <path class="cls-1" d="M74.42,54.34c1.96-1.96,1.96-5.15.12-7.11-1.84-1.96-5.27-2.08-7.24-.25-1.96,1.84-1.96,5.4-.12,7.36,1.96,2.09,5.27,1.96,7.24,0"/>
      <path class="cls-1" d="M56.64,42.44c-2.58-2.7-2.33-6.87.37-9.32,2.58-2.45,6.75-2.45,9.32.25,2.45,2.58,2.33,6.87-.25,9.32-2.82,2.45-6.99,2.33-9.44-.25M31.99,65.87c-2.58-2.7-2.33-6.87.25-9.32,2.7-2.58,6.75-2.45,9.32.25,2.45,2.58,2.45,6.75-.25,9.32-2.58,2.45-6.87,2.33-9.32-.25"/>
      <g>
        <path class="cls-1" d="M87.18,26.62c.98-.86,2.58-.86,3.56.25.86.98.86,2.58-.12,3.43-1.1,1.1-2.7.98-3.56,0-1.1-1.1-.98-2.7.12-3.68"/>
        <path class="cls-1" d="M70.74,9.21c.98-.86,2.58-.86,3.43.12,1.1,1.1.98,2.7,0,3.68-1.1,1.1-2.7.98-3.68-.12-.98-1.23-.86-2.82.25-3.68"/>
        <path class="cls-1" d="M79.08,3.07c.74-.74,1.96-.74,2.82.12.86.86.86,2.08,0,2.82-.86.86-2.08.86-2.94-.12-.86-.61-.74-1.96.12-2.82"/>
        <path class="cls-1" d="M94.54,19.02c.74-.74,1.96-.74,2.82.12.86.86.86,2.08,0,2.82-.86.86-2.08.86-2.94-.12-.86-.74-.74-2.09.12-2.82"/>
        <path class="cls-1" d="M91.35,7c.98-.86,2.58-.86,3.43.12.86.98.86,2.58-.12,3.43-1.1,1.1-2.7.98-3.56,0-.98-.86-.86-2.45.25-3.56"/>
        <path class="cls-1" d="M77.61,34.72c1.59-1.47,4.17-1.35,5.52.12,1.47,1.59,1.47,3.92-.12,5.52-1.47,1.35-3.8,1.35-5.4-.37-1.35-1.35-1.47-3.92,0-5.27"/>
        <path class="cls-1" d="M60.07,16.2c1.59-1.47,3.92-1.47,5.52.12,1.35,1.47,1.47,3.92-.12,5.52-1.47,1.35-3.92,1.23-5.4-.37-1.47-1.59-1.47-3.92,0-5.27"/>
        <path class="cls-1" d="M81.04,14.11c1.47-1.35,4.05-1.23,5.4.37,1.47,1.59,1.47,4.05,0,5.4-1.59,1.47-4.05,1.47-5.52-.12-1.47-1.59-1.47-4.05.12-5.64"/>
        <path class="cls-1" d="M69.52,23.55c1.96-1.96,5.27-1.72,7.24.37,1.96,1.96,1.84,5.27-.25,7.11-1.96,1.96-5.27,1.96-7.24-.12-1.84-2.08-1.72-5.52.25-7.36"/>
      </g>
      <g>
        <path class="cls-1" d="M25.85,86.84c-.98.98-.98,2.58.12,3.56.98.98,2.58.98,3.43,0,1.1-1.1,1.1-2.7.12-3.56-.98-1.1-2.58-1.1-3.68,0"/>
        <path class="cls-1" d="M8.81,70.04c-.98.98-.98,2.58,0,3.43,1.1,1.1,2.7,1.1,3.56.12,1.1-1.1,1.1-2.7,0-3.68-.98-.86-2.58-.86-3.56.12"/>
        <path class="cls-1" d="M2.55,78.25c-.74.74-.74,1.96,0,2.82.86.86,2.08.86,2.82.12.86-.86.86-2.08,0-2.94-.61-.98-1.96-.86-2.82,0"/>
        <path class="cls-1" d="M18.13,94.08c-.74.74-.74,1.96,0,2.82.86.86,2.08.86,2.82.12.86-.86.86-2.08,0-2.94-.74-.86-1.96-.86-2.82,0"/>
        <path class="cls-1" d="M6.35,90.64c-.98.98-.98,2.58,0,3.43.98.98,2.58.86,3.43,0,1.1-1.1,1.1-2.7.12-3.56-.98-.98-2.7-.98-3.56.12"/>
        <path class="cls-1" d="M34.19,77.52c-1.59,1.59-1.35,4.05,0,5.52,1.59,1.59,3.92,1.59,5.52,0,1.47-1.47,1.35-3.8-.12-5.4-1.47-1.35-3.92-1.47-5.4-.12"/>
        <path class="cls-1" d="M16.04,59.61c-1.59,1.59-1.59,3.92,0,5.52,1.47,1.47,3.92,1.59,5.52,0,1.47-1.47,1.23-3.92-.12-5.4-1.59-1.59-3.92-1.59-5.4-.12"/>
        <path class="cls-1" d="M13.71,80.46c-1.47,1.47-1.23,3.92.12,5.4,1.59,1.59,3.92,1.59,5.4.12,1.59-1.59,1.59-3.92,0-5.52-1.47-1.47-4.05-1.59-5.52,0"/>
        <path class="cls-1" d="M23.16,69.18c-1.96,1.96-1.84,5.27.25,7.24,1.96,1.96,5.15,1.96,7.11,0,1.96-1.96,2.08-5.27.12-7.24-2.08-1.96-5.52-1.96-7.48,0"/>
      </g>
    </g>
  </g>
</svg>