<?xml version="1.0" encoding="UTF-8"?>
<svg id="Layer_2" data-name="Layer 2" xmlns="http://www.w3.org/2000/svg" viewBox="0 0 274.69 48.83">
  <defs>
    <style>
      .cls-1 {
        fill: #f6f8f7;
      }
    </style>
  </defs>
  <g id="Layer_1-2" data-name="Layer 1">
    <g>
      <path class="cls-1" d="M237.53,3.79c5.09-3.15,10.56-4.49,16.42-3.44,8.4,1.5,14.49,6.26,18.32,13.85,2.13,4.21,2.84,8.72,2.17,13.38-.93,6.41-4.01,11.66-9.02,15.73-5.26,4.27-11.29,6.17-18.03,5.33-6.01-.74-11.02-3.54-15.1-8-3.26-3.56-5.39-7.72-6.11-12.48-1.22-8.13,1.32-15.08,7.04-20.88,1.28-1.3,2.84-2.32,4.32-3.49M260.14,7.53c-3.98-2.17-8.21-2.93-12.69-2.32-5.26.72-9.58,3.11-12.77,7.37-3.2,4.29-4.31,9.16-3.66,14.45.58,4.82,2.64,8.89,6.29,12.1,3.42,3,7.46,4.5,11.99,4.69,4.82.21,9.28-.96,13.07-4.01,6.08-4.89,8.17-11.37,6.99-18.93-.91-5.84-4.05-10.26-9.21-13.35Z"/>
      <path class="cls-1" d="M171.69,11.12c.13-.69.51-.87,1.16-.85,1.49.05,2.99.02,4.48.02.25,0,.5,0,.84,0-.07.27-.1.45-.17.61-3.46,9.19-6.93,18.38-10.38,27.57-.22.6-.51.83-1.16.79-1-.06-2.01-.05-3.01,0-.6.03-.89-.15-1.11-.74-3.16-8.43-6.35-16.86-9.53-25.28-.1-.28-.21-.55-.36-.94-1.01,1.63-1.96,3.17-2.92,4.71-1.85,2.99-3.71,5.98-5.53,8.99-.2.33-.32.78-.33,1.17-.02,3.76-.03,7.51,0,11.27,0,.65-.18.84-.83.82-1.42-.04-2.85-.01-4.27-.02-.23,0-.45-.02-.76-.04v-.72c0-3.73.01-7.46-.02-11.2,0-.46-.15-.97-.39-1.36-3.05-5.02-6.12-10.02-9.19-15.02-.09-.15-.16-.32-.28-.57.3-.02.52-.05.74-.05,1.75,0,3.5.02,5.25-.01.52,0,.79.19,1.05.61,1.77,2.96,3.56,5.91,5.34,8.86.12.19.25.38.44.65.96-1.59,1.87-3.09,2.77-4.6.98-1.64,1.98-3.27,2.94-4.92.25-.43.53-.61,1.05-.61,3.26.02,6.53.02,9.79,0,.52,0,.73.2.89.66,2.14,5.91,4.3,11.81,6.46,17.71.08.21.17.42.32.81,2.27-6.2,4.47-12.24,6.7-18.33Z"/>
      <path class="cls-1" d="M26.21,18.92c1.79-4.06,4.83-6.72,8.92-8.11,5.9-2,12.7.12,16.35,5.3-1.54,1.13-3.08,2.26-4.65,3.41-1.58-1.88-3.43-3.18-5.84-3.5-2.04-.27-4,.03-5.79,1.11-3.59,2.17-5.2,6.11-4.03,10.11,1.11,3.79,4.45,6.31,8.52,6.33,3.73.02,7.34-2.6,8.24-5.92h-8.28c0-1.89-.01-3.68.03-5.47,0-.12.43-.34.66-.34,3.66-.02,7.32-.02,10.99-.02.95,0,1.91,0,2.82,0,.07.08.13.12.13.15.3,4.33-.3,8.44-3.17,11.91-2.85,3.45-6.49,5.33-11.01,5.51-6.99.28-13.25-4.67-14.75-11.46-.68-3.07-.38-6.07.86-9.02Z"/>
      <path class="cls-1" d="M100.72,20.78c0,6.11,0,12.15,0,18.2,0,.04-.02.09-.06.23-.21.01-.46.04-.7.04-1.26,0-2.52-.02-3.78.01-.5.01-.81-.15-1.1-.56-3.95-5.6-7.92-11.18-11.89-16.77-.13-.19-.28-.36-.51-.66v17.94c-.31.02-.55.05-.8.05-1.42,0-2.85-.03-4.27.01-.63.02-.83-.16-.83-.82.02-7.95.02-15.91.02-23.86,0-1.19.03-2.38-.01-3.57-.02-.6.2-.75.76-.74,1.21.04,2.43.03,3.64,0,.54-.01.89.15,1.21.61,3.97,5.62,7.95,11.22,11.94,16.82.13.18.28.36.57.5V10.33h5.8v10.45Z"/>
      <path class="cls-1" d="M112.21,11.27c6.93-3.1,14.75-.36,18.27,5.28-1.57,1.05-3.15,2.11-4.73,3.16-3.98-5.37-10.64-4.62-13.9-1.2-3.37,3.53-3.24,9.23.28,12.65,3.37,3.28,9.81,3.68,13.59-1.44,1.57,1.05,3.15,2.11,4.91,3.29-1.08,1.1-1.99,2.23-3.09,3.13-2.98,2.42-6.45,3.49-10.28,3.25-6.84-.43-12.53-5.65-13.49-12.44-.84-5.93,1.28-10.69,6.03-14.28.72-.54,1.56-.92,2.4-1.39Z"/>
      <path class="cls-1" d="M200.51,39.25h-12.22c0-1.46-.02-2.83.02-4.2,0-.23.2-.46.34-.67,4-5.93,8.01-11.86,12.01-17.79.13-.19.23-.39.43-.71h-12.41c.14-.26.19-.41.28-.52,1.14-1.56,2.28-3.13,3.45-4.67.16-.2.49-.39.74-.39,5.18-.02,10.36-.02,15.53-.01.11,0,.22.04.39.07,0,1.37.02,2.71-.02,4.06,0,.23-.19.46-.33.67-4.07,6-8.15,11.99-12.22,17.98-.1.15-.19.31-.35.58h13.41c-.2.33-.31.52-.43.69-1.09,1.48-2.17,2.98-3.3,4.43-.19.25-.6.44-.92.45-1.44.05-2.89.02-4.41.02Z"/>
      <path class="cls-1" d="M6.96,20.8c1.26-3.31,2.51-6.57,3.73-9.84.19-.5.41-.69.94-.68,1.19.03,2.38.04,3.57,0,.55-.02.82.15,1.02.68,2.49,6.62,5.02,13.23,7.53,19.84.94,2.48,1.89,4.96,2.83,7.44.11.28.21.56.35.94-.3.03-.54.07-.78.07-1.54,0-3.08-.02-4.62.02-.57.02-.82-.2-1.01-.71-2.24-6.17-4.5-12.33-6.76-18.49-.08-.22-.18-.42-.33-.81-.24.65-.44,1.16-.62,1.67-2.14,5.88-4.29,11.76-6.42,17.65-.18.48-.39.7-.94.69-1.56-.04-3.13-.01-4.69-.02-.22,0-.45-.03-.77-.05,2.34-6.17,4.64-12.26,6.96-18.4Z"/>
      <path class="cls-1" d="M185.27,27.5v11.69h-5.8c0-.26,0-.51,0-.76,0-8.53,0-17.07-.01-25.6,0-.53.14-.76.67-.91,1.69-.49,3.37-1.06,5.15-1.62v17.19Z"/>
      <path class="cls-1" d="M66.98,15.86h-12.17c0-1.8,0-3.52.01-5.23,0-.12.19-.26.33-.33.11-.06.27-.02.41-.02,5.71,0,11.42,0,17.14,0,.25,0,.5.03.8.04v5.54h-6.53Z"/>
      <path class="cls-1" d="M72.43,22.03h1.08v5.48h-18.65v-5.48h17.57Z"/>
      <path class="cls-1" d="M73.56,35.62v3.56h-18.7v-5.34h18.7v1.78Z"/>
      <path class="cls-1" d="M14.36,37.86c-.29.45-.55.85-.87,1.34-1.54-2.38-3.03-4.69-4.57-7.07h9.11c-1.24,1.94-2.44,3.81-3.67,5.73Z"/>
      <path class="cls-1" d="M242.39,32.65c-3.34-3.44-4.28-7.4-2.89-11.93.16-.52.34-.67.89-.43,3.12,1.33,6.26,2.62,9.39,3.93.1.04.21.06.47.14-1.01-3.66-1.98-7.21-2.96-10.76,2.7-1.28,8.54-.55,11.95,3.79,3.61,4.58,3.13,11.33-1.17,15.35-4.41,4.14-11.08,4.11-15.68-.09Z"/>
    </g>
  </g>
</svg>