<?xml version="1.0" encoding="UTF-8"?>
<svg id="edefhccg" xmlns="http://www.w3.org/2000/svg" viewBox="0 0 400 60">
  <defs>
    <style>
      .cls-1 {
        fill: #ff6700;
      }

      .cls-2 {
        fill: #fff;
      }
    </style>
  </defs>
  <g id="SvgjsG1007">
    <path class="cls-2" d="M13.15,22.21l4.14,6.11,4.14-6.11h2.76l-5.32,7.58,5.91,8.37h-2.95l-4.53-6.89-4.63,6.89h-2.66l5.81-8.37-5.32-7.58h2.66ZM34.03,21.81c1.08,0,2.17.2,3.15.59s1.77.98,2.46,1.87l-1.77,1.38c-.98-1.18-2.26-1.77-3.84-1.77-1.77,0-3.15.59-4.23,1.87-1.08,1.18-1.67,2.76-1.67,4.63s.59,3.25,1.67,4.43,2.56,1.77,4.33,1.77,3.15-.69,4.14-2.17l1.77,1.38c-.59.89-1.48,1.48-2.56,2.07-1.08.49-2.26.79-3.54.79-1.58,0-2.95-.39-4.14-1.08s-2.26-1.77-2.95-3.05c-.69-1.28-1.08-2.66-1.08-4.14,0-2.46.79-4.53,2.36-6.11,1.38-1.58,3.45-2.36,5.91-2.46h0ZM52.83,22.21v2.07h-8.17v4.73h7.58v2.07h-7.58v5.12h8.57v2.07h-10.63v-15.95l10.24-.1h0ZM58.45,22.21v13.88h7.29v2.07h-9.45v-15.95h2.17ZM78.34,22.21v2.07h-8.17v4.73h7.58v2.07h-7.58v5.12h8.57v2.07h-10.73v-15.95l10.34-.1h0ZM87.5,22.21c1.58,0,2.76.39,3.64,1.18.89.79,1.28,1.87,1.28,3.25,0,1.08-.39,1.97-1.08,2.76s-1.67,1.28-2.76,1.38h0l4.53,7.29h-2.76l-4.04-6.99h-2.36v6.99h-2.17v-15.95h5.71v.1h0ZM86.91,29.3c1.08,0,1.97-.2,2.56-.59s.79-1.08.79-1.97c0-1.67-1.08-2.56-3.35-2.56h-2.95v5.12h2.95ZM102.56,22.21l6.79,15.95h-2.56l-1.58-3.94h-7.58l-1.58,3.94h-2.56l7.09-15.95h1.97ZM98.43,32.35h6.01l-2.95-7.29h-.1l-2.95,7.29h0ZM119.99,22.21v2.07h-5.12v13.88h-2.17v-13.88h-5.12v-2.07h12.41ZM132.6,22.21v2.07h-8.17v4.73h7.58v2.07h-7.58v5.12h8.57v2.07h-10.73v-15.95l10.34-.1h0Z"/>
  </g>
  <g id="SvgjsG1008">
    <g>
      <path class="cls-1" d="M165.49,27.92c-.89.79-2.17.79-2.95-.1-.79-.79-.79-2.07.1-2.95.79-.79,2.17-.79,2.86.1.89.89.79,2.17,0,2.95M172.87,35.7c-.89.79-2.17.69-2.95-.1-.79-.89-.79-2.07.1-2.95.79-.79,2.07-.79,2.86.1.79.89.79,2.17,0,2.95"/>
      <path class="cls-1" d="M169.62,31.96c-.98.98-2.56.89-3.45-.1-.98-.98-.98-2.56,0-3.54.98-.89,2.56-.89,3.54.1.89,1.08.89,2.66-.1,3.54"/>
      <path class="cls-1" d="M162.04,31.46c-.59.59-1.67.49-2.26-.1s-.59-1.67.1-2.26c.59-.59,1.67-.59,2.26,0,.49.69.49,1.77-.1,2.36"/>
      <path class="cls-1" d="M168.44,38.26c-.59.59-1.67.59-2.26-.1s-.59-1.67,0-2.26,1.77-.59,2.36.1c.59.59.49,1.67-.1,2.26"/>
      <g>
        <path class="cls-1" d="M160.46,18.37c-.3-.3-.3-.79.1-1.08.3-.3.79-.3,1.08,0s.3.79,0,1.08-.89.3-1.18,0"/>
        <path class="cls-1" d="M154.95,23.49c-.3-.3-.3-.79,0-1.08.39-.3.89-.3,1.08,0,.3.39.3.89,0,1.18-.2.3-.79.3-1.08-.1"/>
        <path class="cls-1" d="M153.08,20.93c-.2-.2-.2-.69,0-.89.3-.3.69-.3.89,0,.3.3.3.69,0,.98-.2.2-.59.2-.89-.1"/>
        <path class="cls-1" d="M158.1,16c-.2-.2-.2-.69,0-.89.3-.3.69-.3.89,0,.3.3.3.69,0,.98-.3.2-.69.2-.89-.1"/>
        <path class="cls-1" d="M154.36,16.99c-.3-.3-.3-.79,0-1.08.3-.3.79-.3,1.08,0s.3.79,0,1.08c-.3.39-.79.39-1.08,0"/>
        <path class="cls-1" d="M163.02,21.32c-.49-.49-.39-1.28.1-1.77s1.28-.49,1.77,0c.39.49.39,1.18-.1,1.67s-1.28.59-1.77.1"/>
        <path class="cls-1" d="M157.21,26.84c-.49-.49-.49-1.28.1-1.77.49-.39,1.28-.49,1.77.1.39.49.39,1.28-.1,1.67-.59.49-1.38.49-1.77,0"/>
        <path class="cls-1" d="M156.52,20.24c-.39-.49-.39-1.28.1-1.67.49-.49,1.28-.49,1.67,0,.49.49.49,1.28-.1,1.77-.39.39-1.18.39-1.67-.1"/>
        <path class="cls-1" d="M159.48,23.88c-.59-.59-.49-1.67.1-2.26s1.67-.59,2.26.1c.59.59.59,1.67,0,2.26-.69.59-1.77.49-2.36-.1"/>
      </g>
      <g>
        <path class="cls-1" d="M179.47,37.67c.3.3.79.3,1.08,0s.3-.79,0-1.08c-.3-.3-.79-.3-1.08,0-.39.2-.39.69,0,1.08"/>
        <path class="cls-1" d="M174.15,42.99c.3.3.79.3,1.08,0s.3-.79,0-1.08c-.3-.3-.89-.3-1.18,0-.2.3-.2.79.1,1.08"/>
        <path class="cls-1" d="M176.71,44.96c.2.2.59.2.89,0,.3-.3.3-.69,0-.89-.3-.3-.69-.3-.98,0-.2.2-.2.59.1.89"/>
        <path class="cls-1" d="M181.73,40.03c.2.2.69.2.89,0,.3-.3.3-.69,0-.89-.3-.3-.69-.3-.98,0-.2.3-.2.69.1.89"/>
        <path class="cls-1" d="M180.65,43.77c.3.3.79.3,1.08,0s.3-.79,0-1.08c-.3-.3-.89-.3-1.08,0-.39.3-.39.79,0,1.08"/>
        <path class="cls-1" d="M176.51,35.01c.49.49,1.28.49,1.77,0s.49-1.28,0-1.77-1.18-.49-1.67,0-.49,1.28-.1,1.77"/>
        <path class="cls-1" d="M170.9,40.72c.49.49,1.28.49,1.77,0s.49-1.28,0-1.77-1.28-.39-1.67,0c-.59.59-.59,1.38-.1,1.77"/>
        <path class="cls-1" d="M177.5,41.51c.49.49,1.28.39,1.67,0,.49-.49.49-1.28,0-1.67-.49-.49-1.28-.49-1.77,0-.39.39-.49,1.18.1,1.67"/>
        <path class="cls-1" d="M173.86,38.46c.59.59,1.67.59,2.26,0s.59-1.58,0-2.26c-.59-.69-1.67-.69-2.26,0s-.59,1.67,0,2.26"/>
      </g>
      <path class="cls-1" d="M169.03,24.67c.59-.59.59-1.67,0-2.26s-1.58-.59-2.26,0c-.59.59-.69,1.67-.1,2.26.69.69,1.67.69,2.36,0"/>
      <path class="cls-1" d="M175.53,31.37c.59-.59.59-1.58,0-2.26-.59-.59-1.67-.69-2.26-.1s-.59,1.67,0,2.36,1.67.69,2.26,0"/>
      <path class="cls-1" d="M169.92,27.62c-.79-.89-.79-2.17.1-2.95.79-.79,2.07-.79,2.86.1.79.79.69,2.17-.1,2.95-.69.79-2.07.79-2.86-.1M162.14,35.01c-.79-.89-.69-2.17.1-2.95.89-.79,2.07-.79,2.86.1.79.79.79,2.07-.1,2.95-.69.79-2.07.69-2.86-.1"/>
      <g>
        <path class="cls-1" d="M179.57,22.7c.3-.3.79-.3,1.08.1.3.3.3.79,0,1.08-.39.3-.89.3-1.08,0-.39-.39-.3-.89,0-1.18"/>
        <path class="cls-1" d="M174.35,17.19c.3-.3.79-.3,1.08,0,.3.39.3.89,0,1.08-.39.3-.89.3-1.18,0-.2-.3-.2-.79.1-1.08"/>
        <path class="cls-1" d="M177.01,15.32c.2-.2.69-.2.89,0,.3.3.3.69,0,.89-.3.3-.69.3-.98,0-.2-.3-.2-.69.1-.89"/>
        <path class="cls-1" d="M181.83,20.24c.2-.2.69-.2.89,0,.3.3.3.69,0,.89-.3.3-.69.3-.98,0-.2-.2-.2-.59.1-.89"/>
        <path class="cls-1" d="M180.85,16.5c.3-.3.79-.3,1.08,0s.3.79,0,1.08c-.39.3-.89.3-1.08,0-.3-.3-.3-.79,0-1.08"/>
        <path class="cls-1" d="M176.61,25.26c.49-.49,1.28-.39,1.77,0,.49.49.49,1.28-.1,1.77-.49.49-1.18.39-1.67-.1s-.49-1.28,0-1.67"/>
        <path class="cls-1" d="M171.1,19.35c.49-.49,1.28-.49,1.77.1.39.49.49,1.28-.1,1.77-.49.49-1.28.39-1.67-.1-.49-.59-.49-1.28,0-1.77"/>
        <path class="cls-1" d="M177.6,18.76c.49-.49,1.28-.39,1.67.1.49.49.49,1.28,0,1.67-.49.49-1.28.49-1.77-.1-.3-.39-.39-1.18.1-1.67"/>
        <path class="cls-1" d="M174.05,21.72c.59-.59,1.67-.49,2.26.1.59.69.59,1.67-.1,2.26-.59.59-1.67.59-2.26,0-.59-.69-.59-1.77.1-2.36"/>
      </g>
      <g>
        <path class="cls-1" d="M160.27,41.61c-.3.3-.3.79.1,1.08.3.3.79.3,1.08,0s.3-.79,0-1.08c-.3-.3-.79-.3-1.18,0"/>
        <path class="cls-1" d="M154.85,36.39c-.3.3-.3.79,0,1.08.3.3.79.3,1.08,0s.3-.89,0-1.18c-.2-.3-.69-.3-1.08.1"/>
        <path class="cls-1" d="M152.88,38.95c-.2.2-.2.69,0,.89.3.3.69.3.89,0,.3-.3.3-.69,0-.98-.2-.2-.59-.2-.89.1"/>
        <path class="cls-1" d="M157.81,43.87c-.2.2-.2.69,0,.89.3.3.69.3.89,0,.3-.3.3-.69,0-.98-.2-.2-.59-.2-.89.1"/>
        <path class="cls-1" d="M154.06,42.79c-.3.3-.3.79,0,1.08.3.3.79.3,1.08,0s.3-.79,0-1.08c-.2-.3-.69-.3-1.08,0"/>
        <path class="cls-1" d="M162.93,38.75c-.49.49-.49,1.28,0,1.77s1.28.49,1.77,0,.49-1.18-.1-1.67c-.49-.59-1.28-.59-1.67-.1"/>
        <path class="cls-1" d="M157.12,33.04c-.49.49-.49,1.28,0,1.77s1.28.49,1.77,0,.39-1.28-.1-1.67c-.39-.49-1.18-.49-1.67-.1"/>
        <path class="cls-1" d="M156.43,39.64c-.49.49-.39,1.28.1,1.67.49.49,1.28.49,1.67,0,.49-.49.49-1.28,0-1.77-.49-.39-1.28-.39-1.77.1"/>
        <path class="cls-1" d="M159.38,36.09c-.59.59-.59,1.67.1,2.26.59.59,1.58.59,2.26,0,.59-.59.69-1.67,0-2.26-.69-.59-1.77-.59-2.36,0"/>
      </g>
    </g>
  </g>
  <g id="SvgjsG1009">
    <path class="cls-2" d="M208.62,22.21c1.67,0,3.15.3,4.43,1.08,1.28.79,2.17,1.67,2.86,2.86.69,1.18.98,2.56.98,4.04s-.39,2.86-1.08,4.04-1.77,2.17-3.05,2.86c-1.28.69-2.76.98-4.43.98h-5.32v-15.95h5.61v.1h0ZM208.03,36.19c1.18,0,2.36-.2,3.35-.69s1.87-1.18,2.36-2.07c.59-.89.89-1.97.89-3.15,0-1.77-.59-3.25-1.67-4.33-1.08-1.08-2.56-1.58-4.43-1.58h-3.35v11.92l2.86-.1h0ZM222.21,22.21v15.95h-2.17v-15.95h2.17ZM233.63,21.81c2.66,0,4.63.69,5.91,2.07l-1.58,1.67c-1.18-1.08-2.66-1.67-4.43-1.67s-3.15.59-4.33,1.77c-1.18,1.18-1.67,2.76-1.67,4.53s.59,3.35,1.77,4.53,2.66,1.77,4.43,1.77c1.67,0,2.95-.3,3.94-.89v-4.43h-3.54v-2.07h5.71v7.88c-.79.49-1.77.79-2.86,1.08-1.08.3-2.17.39-3.25.39-2.56,0-4.53-.79-6.11-2.36-1.58-1.58-2.36-3.54-2.36-6.01s.79-4.33,2.36-6.01,3.64-2.26,6.01-2.26h0ZM246.04,22.21v15.95h-2.17v-15.95h2.17ZM260.71,22.21v2.07h-5.12v13.98h-2.17v-13.98h-5.12v-2.07h12.41ZM267.9,22.21l6.79,15.95h-2.56l-1.58-3.94h-7.48l-1.58,3.94h-2.56l6.99-15.95h1.97ZM263.76,32.35h6.01l-2.95-7.29h0l-3.05,7.29h0ZM279.02,22.21v13.88h7.29v2.07h-9.45v-15.95h2.17ZM299.41,21.81c2.07,0,3.64.59,4.63,1.87l-1.77,1.58c-.3-.39-.69-.79-1.18-.98s-1.08-.39-1.67-.39c-.98,0-1.67.2-2.26.69s-.89,1.08-.89,1.77c0,1.18.79,2.07,2.36,2.56l1.97.69c1.08.39,1.97.89,2.56,1.48s.89,1.58.89,2.66c0,1.48-.49,2.66-1.58,3.54s-2.36,1.38-3.94,1.38c-2.26,0-4.04-.79-5.12-2.17l1.77-1.58c.39.49.79.98,1.38,1.28s1.28.49,1.97.49c.89,0,1.67-.3,2.26-.79s.89-1.18.89-1.87c0-.59-.2-.98-.59-1.38s-1.08-.69-2.07-.98l-1.38-.49c-1.48-.49-2.46-1.08-2.95-1.87-.59-.79-.89-1.67-.89-2.86,0-1.28.49-2.26,1.48-3.15.98-.89,2.46-1.48,4.14-1.48h0ZM307.78,22.21l4.33,6.99,4.53-6.99h2.66l-6.01,9.16v6.79h-2.17v-6.79l-6.01-9.16h2.66ZM325.7,21.81c2.07,0,3.64.59,4.63,1.87l-1.77,1.58c-.3-.39-.69-.79-1.18-.98s-1.08-.39-1.67-.39c-.98,0-1.67.2-2.26.69s-.89,1.08-.89,1.77c0,1.18.79,2.07,2.36,2.56l1.97.69c1.08.39,1.97.89,2.56,1.48s.89,1.58.89,2.66c0,1.48-.49,2.66-1.58,3.54s-2.36,1.38-3.94,1.38c-2.26,0-4.04-.79-5.12-2.17l1.77-1.58c.39.49.79.98,1.38,1.28s1.28.49,1.97.49c.89,0,1.67-.3,2.26-.79s.89-1.18.89-1.87c0-.59-.2-.98-.59-1.38s-1.08-.69-2.07-.98l-1.38-.49c-1.48-.49-2.46-1.08-2.95-1.87-.59-.79-.89-1.67-.89-2.86,0-1.28.49-2.26,1.48-3.15.98-.89,2.56-1.48,4.14-1.48h0ZM344.31,22.21v2.07h-5.12v13.88h-2.26v-13.88h-5.12v-2.07h12.51ZM356.91,22.21v2.07h-8.17v4.73h7.58v2.07h-7.58v5.12h8.57v2.07h-10.73v-15.95l10.34-.1h0ZM363.41,22.21l5.02,12.11h.1l5.02-12.11h3.25v15.95h-2.17v-13.1h0l-5.42,13.1h-1.48l-5.42-13.1h0v13.1h-2.17v-15.95h3.25ZM385.37,21.81c2.07,0,3.64.59,4.63,1.87l-1.77,1.58c-.3-.39-.69-.79-1.18-.98s-1.08-.39-1.67-.39c-.98,0-1.67.2-2.26.69s-.89,1.08-.89,1.77c0,1.18.79,2.07,2.36,2.56l1.97.69c1.08.39,1.97.89,2.56,1.48s.89,1.58.89,2.66c0,1.48-.49,2.66-1.58,3.54s-2.36,1.38-3.94,1.38c-2.26,0-4.04-.79-5.12-2.17l1.77-1.58c.39.49.79.98,1.38,1.28s1.28.49,1.97.49c.89,0,1.67-.3,2.26-.79s.89-1.18.89-1.87c0-.59-.2-.98-.59-1.38s-1.08-.69-2.07-.98l-1.38-.49c-1.48-.49-2.46-1.08-2.95-1.87-.59-.79-.89-1.67-.89-2.86,0-1.28.49-2.26,1.48-3.15.98-.89,2.56-1.48,4.14-1.48h0Z"/>
  </g>
</svg>